<?xml version="1.0" standalone="no"?>
<!DOCTYPE svg PUBLIC "-//W3C//DTD SVG 20010904//EN"
 "http://www.w3.org/TR/2001/REC-SVG-20010904/DTD/svg10.dtd">
<svg version="1.0" xmlns="http://www.w3.org/2000/svg"
 width="488.000000pt" height="488.000000pt" viewBox="0 0 488.000000 488.000000"
 preserveAspectRatio="xMidYMid meet">
<metadata>
Created by potrace 1.14, written by Peter Selinger 2001-2017
</metadata>
<g transform="translate(0.000000,488.000000) scale(0.100000,-0.100000)"
fill="#000000" stroke="none">
<path d="M2073 4851 c-22 -16 -66 -60 -98 -97 -102 -120 -159 -222 -210 -374
-29 -85 -37 -99 -76 -128 -274 -210 -440 -431 -526 -701 -30 -96 -40 -229 -23
-302 24 -102 95 -216 224 -363 34 -38 54 -67 46 -63 -131 52 -254 64 -345 32
-66 -23 -177 -95 -204 -133 -72 -101 -117 -304 -92 -414 29 -134 105 -240 205
-287 66 -31 233 -87 349 -118 42 -11 67 -22 67 -31 0 -8 -13 -43 -30 -78 -16
-36 -40 -98 -52 -139 -21 -67 -26 -75 -48 -75 -30 0 -237 -51 -330 -81 -36
-12 -119 -49 -185 -82 -96 -49 -133 -74 -185 -127 -176 -176 -219 -465 -105
-705 56 -116 97 -163 185 -209 104 -55 179 -65 470 -66 246 0 364 8 562 39
102 16 109 16 142 -1 57 -29 237 -77 383 -102 270 -45 634 -31 849 34 l99 30
17 -23 c10 -12 18 -27 18 -32 0 -6 24 -34 53 -61 141 -137 276 -185 525 -187
141 -1 151 1 245 33 104 35 158 66 223 127 188 177 273 441 233 723 -15 102
-12 183 10 363 18 142 18 194 10 767 -5 338 -8 647 -8 686 0 39 -7 120 -15
180 -8 60 -14 116 -14 124 1 34 -49 351 -77 480 -16 77 -99 334 -113 354 -20
26 -31 100 -36 226 -9 218 -65 500 -122 612 -20 39 -29 48 -51 48 -88 0 -346
-109 -492 -208 l-73 -50 -67 18 c-258 72 -475 95 -743 81 l-191 -11 -89 94
c-74 79 -249 226 -269 226 -3 0 -24 -13 -46 -29z"/>
</g>
</svg>
