<?xml version="1.0" encoding="UTF-8"?><svg id="Layer_1" xmlns="http://www.w3.org/2000/svg" viewBox="0 0 605 105.85">
    <defs>
        <style>
            .cls-1 {
                fill: #730909;
            }

            .cls-2 {
                fill: #fcd3a7;
                stroke: #bf8450;
            }

            .cls-2,
            .cls-3 {
                stroke-miterlimit: 10;
            }

            .cls-4 {
                opacity: .75;
            }

            .cls-3 {
                fill: #bf8450;
                font-family: Montserrat-Regular, Montserrat;
                font-size: 92px;
                stroke: #fcd3a7;
            }
        </style>
    </defs>
    <g class="cls-4">
        <rect class="cls-1" y="33" width="110" height="30" />
        <polygon class="cls-1" points="62 4.7 62 91.3 137 48 62 4.7" />
    </g>
    <g class="cls-4">
        <rect class="cls-1" x="55" y="32" width="110" height="30" />
        <polygon class="cls-1" points="117 3.7 117 90.3 192 47 117 3.7" />
    </g>
    <g class="cls-4">
        <rect class="cls-1" x="468" y="35" width="110" height="30" />
        <polygon class="cls-1" points="530 6.7 530 93.3 605 50 530 6.7" />
    </g>
    <g class="cls-4">
        <rect class="cls-1" x="331" y="36" width="110" height="30" />
        <polygon class="cls-1" points="393 7.7 393 94.3 468 51 393 7.7" />
    </g>
    <g class="cls-4">
        <rect class="cls-1" x="194" y="35" width="110" height="30" />
        <polygon class="cls-1" points="256 6.7 256 93.3 331 50 256 6.7" />
    </g>
    <g>
        <g>
            <rect class="cls-2" x="55.5" y=".5" width="82" height="98" rx="16.22" ry="16.22" /><text class="cls-3"
                transform="translate(59.29 81.24)">
                <tspan x="0" y="0">N</tspan>
            </text>
        </g>
        <g>
            <rect class="cls-2" x="193.5" y=".5" width="82" height="98" rx="16.22" ry="16.22" /><text class="cls-3"
                transform="translate(201.71 81.24)">
                <tspan x="0" y="0">A</tspan>
            </text>
        </g>
        <g>
            <rect class="cls-2" x="330.5" y=".5" width="82" height="98" rx="16.22" ry="16.22" /><text class="cls-3"
                transform="translate(338.92 81.24)">
                <tspan x="0" y="0">E</tspan>
            </text>
        </g>
        <g>
            <rect class="cls-2" x="465.5" y=".5" width="82" height="98" rx="16.22" ry="16.22" /><text class="cls-3"
                transform="translate(478.4 81.24)">
                <tspan x="0" y="0">S</tspan>
            </text>
        </g>
    </g>
</svg>